<svg xmlns="http://www.w3.org/2000/svg" viewBox="0 0 512 512">
<defs><linearGradient id="b" x1="0" y1="0" x2="1" y2="1"><stop offset="0" stop-color="#0D47A1"/><stop offset="1" stop-color="#1976D2"/></linearGradient>
<linearGradient id="o" x1="0" y1="0" x2="1" y2="1"><stop offset="0" stop-color="#FFB300"/><stop offset="1" stop-color="#FF6D00"/></linearGradient></defs>
<path fill="url(#b)" d="M40 80h250l-20 60H120l-20 70h140l-20 60H80l-20 70h240l-20 60H0z"/>
<path fill="url(#o)" d="M250 140h90c70 0 100 30 100 80 0 40-25 70-70 80l100 110h-80L300 320h-80l20-60h90c35 0 55-10 55-35s-20-35-55-35h-80z"/>
<polygon fill="url(#o)" points="320,300 380,300 500,512 420,512"/>
<rect x="340" y="30" width="24" height="24" fill="#0D47A1"/><rect x="372" y="0" width="24" height="24" fill="#1565C0"/><rect x="404" y="30" width="24" height="24" fill="#FF8A00"/><rect x="372" y="62" width="24" height="24" fill="#1976D2"/>
</svg>