<svg xmlns="http://www.w3.org/2000/svg" viewBox="0 0 1000 320">
<defs><linearGradient id="b" x1="0" y1="0" x2="1" y2="1"><stop offset="0" stop-color="#0D47A1"/><stop offset="1" stop-color="#1976D2"/></linearGradient>
<linearGradient id="o" x1="0" y1="0" x2="1" y2="1"><stop offset="0" stop-color="#FFB300"/><stop offset="1" stop-color="#FF6D00"/></linearGradient></defs>
<path fill="url(#b)" d="M60 50h220l-15 45H120l-15 55h135l-15 45H90l-15 55h210l-15 45H30z"/>
<path fill="url(#o)" d="M280 95h80c60 0 90 25 90 70 0 35-20 60-60 70l120 85h-70l-110-80h-70l15-45h95c30 0 55-10 55-35s-20-30-50-30h-80z"/>
<polygon fill="url(#o)" points="355,215 410,215 520,320 450,320"/>
<rect x="360" y="20" width="16" height="16" fill="#0D47A1"/><rect x="382" y="0" width="16" height="16" fill="#1565C0"/><rect x="404" y="20" width="16" height="16" fill="#FF8A00"/><rect x="382" y="42" width="16" height="16" fill="#1976D2"/>
</svg>
